<svg width="24" height="24" xmlns="http://www.w3.org/2000/svg">

 <g>
  <title>background</title>
  <rect fill="none" id="canvas_background" height="402" width="582" y="-1" x="-1"/>
 </g>
 <g>
  <title>Layer 1</title>
  <path fill="#7f7f7f" id="svg_1" d="m11.513,12.38c-2.117,0 -3.835,-1.729 -3.835,-3.862c0,-2.135 1.718,-3.862999 3.835,-3.862999s3.835,1.729 3.835,3.862999c0,2.132 -1.717999,3.862 -3.835,3.862m0,-12.38c-4.688,0 -8.487999,3.827 -8.487999,8.549c0,4.46 3.844,10.212999 6.411,13.014c0.959001,1.045 2.076,2.454 2.076,2.454s1.2,-1.417 2.229,-2.493c2.565,-2.684 6.259,-8.073 6.259,-12.975c0,-4.722 -3.799999,-8.549 -8.487,-8.549"/>
 </g>
</svg>